<svg xmlns="http://www.w3.org/2000/svg" width="48" height="48" viewBox="0 0 48 48"><g transform="translate(0 -1004.362)"><circle cx="24" cy="1028.362" r="24" fill="#50b748" fill-rule="evenodd"/><path fill="#fff" style="line-height:normal;text-indent:0;text-align:start;text-decoration-line:none;text-decoration-style:solid;text-decoration-color:#000;text-transform:none;block-progression:tb;isolation:auto;mix-blend-mode:normal" d="m 28.473713,1011.3856 a 0.50005,0.50005 0 0 0 -0.05859,0.01 c -0.804068,0.1292 -1.578117,0.4006 -2.283207,0.8047 -2.240057,1.2969 -3.473374,3.7178 -3.384765,6.2109 -1.204771,-1.5524 -3.076665,-2.5375 -5.154297,-2.5391 a 0.50004997,0.50004997 0 0 0 -0.002,0 c -0.77402,0 -1.540443,0.145 -2.265578,0.418 a 0.50004997,0.50004997 0 0 0 -0.322266,0.5233 c 0.374673,3.3332 3.175742,5.8627 6.503906,5.8652 a 0.50004997,0.50004997 0 0 0 0.002,0 c 0.537003,0 1.070856,-0.074 1.589844,-0.207 l 0,5.8906 -6.748047,0 c -0.427968,0 -0.785203,0.3607 -0.785203,0.7871 l 0,2.4219 c 0,0.4264 0.357445,0.7871 0.785156,0.7871 l 0.34375,0 1.22461,11.0039 11.310546,0 1.226563,-11.0039 0.324219,0 c 0.427711,0 0.785156,-0.3607 0.785156,-0.7871 l 0,-2.4219 c 0,-0.4264 -0.357235,-0.7871 -0.785156,-0.7871 l -6.681641,0 0,-1.3262 c 0.320336,0.071 0.64533,0.12 0.974609,0.1211 a 0.50004997,0.50004997 0 0 0 0.002,0 c 2.312089,0 4.267541,-1.7271 4.529296,-4.0078 a 0.50004997,0.50004997 0 0 0 -0.324264,-0.5274 c -0.504357,-0.1859 -1.038153,-0.2814 -1.576172,-0.2832 a 0.50004997,0.50004997 0 0 0 -0.002,0 c -1.454094,0 -2.764708,0.6835 -3.603516,1.7579 l 0,-2.2715 a 0.50004997,0.50004997 0 0 0 0,-0.076 l 0,-0.4922 c 0.723273,-0.1414 1.419445,-0.3933 2.058641,-0.7598 a 0.50005,0.50005 0 0 0 0.002,0 c 3.024145,-1.7509 4.2204,-5.5502 2.792922,-8.8105 a 0.50005,0.50005 0 0 0 -0.478516,-0.2988 l 0,0 z m -0.332031,1.1446 c 0.948149,2.7034 -0.03667,5.6805 -2.484375,7.0976 -0.325373,0.1864 -0.680634,0.3013 -1.041016,0.4024 l 2.441407,-3.2032 a 0.50005,0.50005 0 0 0 -0.425782,-0.8086 0.50005,0.50005 0 0 0 -0.371094,0.2032 l -2.33789,3.0722 c -0.485684,-2.4494 0.52054,-4.9612 2.707031,-6.2285 0.466935,-0.2677 0.989243,-0.4075 1.511719,-0.5351 z m -10.548828,4.3417 0.002,0 c 2.313179,0 4.271614,1.4592 5.083984,3.5469 l -2.878953,-1.5293 a 0.50005,0.50005 0 0 0 -0.240234,-0.062 0.50005,0.50005 0 0 0 -0.228516,0.9453 l 3.263672,1.7344 c -0.357655,0.092 -0.717788,0.1705 -1.087891,0.1719 -2.665897,0 -4.864791,-1.9324 -5.376953,-4.5371 0.479642,-0.1358 0.963484,-0.2677 1.462891,-0.2696 z m 10.109375,6.4668 0.002,0 c 0.233595,9e-4 0.455566,0.077 0.683594,0.1231 -0.403351,1.5241 -1.668475,2.6932 -3.310547,2.6953 -0.08019,-3e-4 -0.157978,-0.018 -0.236328,-0.031 l 1.572265,-0.9297 a 0.50005,0.50005 0 0 0 -0.236328,-0.9336 l 0,0 a 0.50005,0.50005 0 0 0 -0.271484,0.07 l -1.046875,0.6191 c 0.604581,-0.9628 1.618818,-1.6136 2.84375,-1.6152 z m -11.136719,6.0235 14,0 0,1.9941 -13.984375,0 0,0 -0.01563,0 0,-1.9961 z m 1.132812,2.9961 11.751954,0 -1.115235,10.0039 -9.521484,0 -1.115235,-10.0039 z" color="#000" font-family="sans-serif" font-weight="400" overflow="visible"/></g></svg>